:SAMPLES-PER-SECOND 30
:FULLY-SPECIFIED
:DEGREES
1
root  22.75355482 39.90288982 9.739999696 -5.031320095 0.08409400284 -6.463669777
lowerback  10.69139957 1.265409946 3.545589924
upperback  1.562639952 2.278589964 3.915380001
thorax  -4.387609959 1.098330021 1.765319943
lowerneck  -17.12170029 -5.897709846 -15.15439987
upperneck  26.45960045 -6.61729002 9.365590096
head  12.46399975 -3.324359894 5.091279984
lclavicle  0 -5.34481991e-014 2.981770104e-014
lhumerus  -46.15159988 10.40859985 81.61000061
lradius  -2.839204443e-031 -2.099467115e-031 36.48130035
lwrist  -1.059337512e-030 -0 2.366300106
lhand  -7.186813049e-031 -10.68299961 30.29000092
lfingers  90 7.125020027 -90
lthumb  93.96714072 14.16812289 74.18089307
rclavicle  0 -5.34481991e-014 2.981770104e-014
rhumerus  -30.17980003 -10.27779961 -77.59999847
rradius  3.222870943e-031 1.442895327e-031 24.11829948
rwrist  3.531125038e-031 -3.531125038e-031 9.114350319
rhand  -0 -18.9034996 11.58059978
rfingers  -90 -7.125020027 -90
rthumb  -86.28972268 -26.4900381 -81.72808752
rfemur  0.1152089983 2.579240084 32.10620117
rtibia  -0 0 23.66430092
rfoot  -4.53992821e-032 -13.53149986 -2.802330017
rtoes  4.451681784 19.51807892 -103.1170358
lfemur  -20.72750092 5.927440166 -9.54049015
ltibia  -0 0 66.46700287
lfoot  4.425733396e-032 -4.189680099 -2.846590042
ltoes  -4.946381702 -19.40299674 -104.601844
2
root  22.79622236 39.87044387 10.07579969 -4.953889847 -0.2843160033 -6.598060131
lowerback  10.56299973 1.407860041 3.87203002
upperback  1.51770997 2.496279955 3.862479925
thorax  -4.348380089 1.200379968 1.498870015
lowerneck  -16.74710083 -5.906300068 -15.17590046
upperneck  26.31170082 -6.683760166 9.394960403
head  12.34029961 -3.358690023 5.093400002
lclavicle  0 -5.34481991e-014 2.981770104e-014
lhumerus  -46.57749939 10.32229996 81.58719635
lradius  -2.837096102e-031 -2.102315329e-031 36.53879929
lwrist  -7.062250077e-031 -0 2.259829998
lhand  -7.194380807e-031 -10.99790001 30.91720009
lfingers  90 7.125020027 -90
lthumb  94.07045042 14.81527957 74.44806991
rclavicle  0 -5.34481991e-014 2.981770104e-014
rhumerus  -29.89629936 -9.939889908 -77.78829956
rradius  3.210202923e-031 1.47086411e-031 24.61650085
rwrist  7.062250077e-031 -7.062250077e-031 8.947239876
rhand  -0 -18.74909973 11.54899979
rfingers  -90 -7.125020027 -90
rthumb  -86.2199318 -26.45428157 -81.56384917
rfemur  0.6313319802 2.508460045 32.1711998
rtibia  -0 0 23.64109993
rfoot  -4.548703605e-032 -13.98340034 -2.482520103
rtoes  2.714902023 19.82235593 -97.96045819
lfemur  -21.37269974 6.070129871 -9.561400414
ltibia  -0 0 65.33860016
lfoot  4.431729411e-032 -5.140299797 -2.298990011
ltoes  -4.617099363 -19.48103233 -103.6125926
3
root  22.8135552 39.83866774 10.38777809 -4.860750198 -0.6513530016 -6.845910072
lowerback  10.64960003 1.562849998 4.148799896
upperback  1.422850013 2.745929956 3.883960009
thorax  -4.484280109 1.316550016 1.328240037
lowerneck  -16.6760006 -5.942440033 -15.17199993
upperneck  26.43059921 -6.741899967 9.349430084
head  12.3803997 -3.393640041 5.069739819
lclavicle  0 -5.34481991e-014 2.981770104e-014
lhumerus  -46.98469925 10.37110043 81.52420044
lradius  -2.834922392e-031 -2.105245607e-031 36.59799957
lwrist  -7.062250077e-031 -3.531125038e-031 2.13725996
lhand  -7.196362707e-031 -11.0788002 32.38560104
lfingers  90 7.125020027 -90
lthumb  94.45945605 16.24120504 74.41877434
rclavicle  0 -5.34481991e-014 2.981770104e-014
rhumerus  -29.55089951 -9.452750206 -78.0177002
rradius  3.196331618e-031 1.500769211e-031 25.15139961
rwrist  7.062250077e-031 -3.531125038e-031 8.399020195
rhand  -0 -18.69580078 11.49139977
rfingers  -90 -7.125020027 -90
rthumb  -86.20361925 -26.39569435 -81.51066939
rfemur  1.074419975 2.694099903 32.50479889
rtibia  -0 0 23.56310081
rfoot  -4.55461974e-032 -14.2791996 -2.557869911
rtoes  2.325554801 19.86983605 -96.81364911
lfemur  -22.0135994 6.238629818 -9.363140106
ltibia  -0 0 64.06780243
lfoot  6.65716139e-032 -5.986259937 -1.850849986
ltoes  -4.790644454 -19.44061957 -104.133492
4
root  22.80711076 39.78933199 10.66457793 -4.781489849 -1.007150054 -7.276010036
lowerback  10.8434 1.707309961 4.475190163
upperback  1.457700014 2.992909908 4.003920078
thorax  -4.544630051 1.432690024 1.231240034
lowerneck  -16.84410095 -6.01019001 -15.14150047
upperneck  26.40810013 -6.79749012 9.275099754
head  12.41069984 -3.419450045 5.02271986
lclavicle  0 -5.34481991e-014 2.981770104e-014
lhumerus  -47.16030121 10.49839973 81.56430054
lradius  -2.828526952e-031 -2.113830486e-031 36.77170181
lwrist  -1.059337512e-030 -0 2.079210043
lhand  -7.204282715e-031 -11.39599991 32.3716011
lfingers  90 7.125020027 -90
lthumb  94.37295961 16.27292976 74.73549857
rclavicle  0 -5.34481991e-014 2.981770104e-014
rhumerus  -28.93810081 -9.005410194 -78.2358017
rradius  3.18078864e-031 1.533436554e-031 25.73839951
rwrist  7.062250077e-031 -3.531125038e-031 7.701089859
rhand  -0 -18.57629967 11.40110016
rfingers  -90 -7.125020027 -90
rthumb  -86.16090837 -26.30287265 -81.38859426
rfemur  1.476780057 3.133949995 33.17599869
rtibia  -0 0 23.45750046
rfoot  -4.556261629e-032 -14.36009979 -2.969779968
rtoes  2.796356248 19.81147627 -98.2007247
lfemur  -22.74209976 6.466849804 -8.859189987
ltibia  -0 0 62.69210052
lfoot  5.555421504e-032 -6.708720207 -1.430009961
ltoes  -4.730192476 -19.45487714 -103.9519258
5
root  22.8455551 39.76622153 11.01582219 -4.690320015 -1.317810059 -7.376470089
lowerback  10.65690041 1.801280022 4.717410088
upperback  1.470600009 3.129080057 3.978250027
thorax  -4.411670208 1.49793005 1.056349993
lowerneck  -16.68260002 -5.960149765 -15.11250019
upperneck  26.34770012 -6.760089874 9.289179802
head  12.34669971 -3.400840044 5.029409885
lclavicle  0 -5.34481991e-014 2.981770104e-014
lhumerus  -47.69670105 10.43120003 81.63619995
lradius  -2.811409187e-031 -2.136544504e-031 37.23320007
lwrist  -1.059337512e-030 -3.531125038e-031 2.173110008
lhand  -7.219735798e-031 -11.98919964 31.65839958
lfingers  90 7.125020027 -90
lthumb  94.02942875 15.66494067 75.37808614
rclavicle  0 -5.34481991e-014 2.981770104e-014
rhumerus  -28.71260071 -8.396019936 -78.49710083
rradius  3.1615675e-031 1.572684006e-031 26.44750023
rwrist  7.062250077e-031 -3.531125038e-031 6.906549931
rhand  -0 -18.25650024 11.44799995
rfingers  -90 -7.125020027 -90
rthumb  -85.99856033 -26.33957805 -81.04051612
rfemur  2.092979908 2.904059887 33.16199875
rtibia  -0 0 23.28230095
rfoot  -4.561599757e-032 -14.61970043 -2.502650023
rtoes  3.800046822 19.65020266 -101.1731308
lfemur  -23.1317997 6.508580208 -8.898090363
ltibia  -0 0 61.04510117
lfoot  5.011037994e-032 -7.717889786 -0.6448990107
ltoes  -4.38850175 -19.53185107 -102.9279973
6
root  22.86822251 39.74355562 11.32562217 -4.475450039 -1.655660033 -7.623799801
lowerback  10.66670036 1.906559944 5.024059772
upperback  1.363800049 3.311180115 3.97416997
thorax  -4.509409904 1.579429984 0.8540700078
lowerneck  -16.57049942 -5.941249847 -15.08349991
upperneck  26.38159943 -6.767610073 9.309960365
head  12.33749962 -3.402159929 5.033969879
lclavicle  0 -5.34481991e-014 2.981770104e-014
lhumerus  -48.16619873 10.3185997 81.66069794
lradius  -2.800240096e-031 -2.151162347e-031 37.53170013
lwrist  -7.062250077e-031 -3.531125038e-031 2.194489956
lhand  -7.231431083e-031 -12.41800022 31.52519989
lfingers  90 7.125020027 -90
lthumb  93.88699311 15.59176398 75.81343282
rclavicle  0 -5.34481991e-014 2.981770104e-014
rhumerus  -28.44720078 -7.648859978 -78.84390259
rradius  3.146703014e-031 1.602218517e-031 26.98399925
rwrist  3.531125038e-031 -7.062250077e-031 5.963809967
rhand  -0 -18.07570076 11.52589989
rfingers  -90 -7.125020027 -90
rthumb  -85.89740847 -26.41079691 -80.83968928
rfemur  2.555350065 3.146729946 33.44810104
rtibia  -0 0 22.96899986
rfoot  -4.564942763e-032 -14.77970028 -2.445719957
rtoes  1.931956313 19.91027419 -95.65677746
lfemur  -23.76119995 6.603610039 -8.72589016
ltibia  -0 0 59.27149963
lfoot  4.740776734e-032 -8.41189003 0.1094740033
ltoes  -3.946961261 -19.62232304 -101.6103122
